<svg width="178" height="176" viewBox="0 0 178 176" fill="none" xmlns="http://www.w3.org/2000/svg">
<path d="M87.8777 67.6151L33.3572 113.363C28.5327 117.411 27.2087 124.779 31.5367 129.937L37.1297 136.602C41.4576 141.76 48.9431 141.736 53.7675 137.687L108.288 91.9393L103.22 125.519L103.218 125.527L103.217 125.535C102.233 132.201 107.051 138.148 113.825 138.479L122.672 138.912C122.677 138.912 122.682 138.912 122.688 138.913C129.059 139.25 134.733 134.452 135.529 128.147L145.28 50.9856C145.281 50.9802 145.281 50.9747 145.282 50.9693C146.147 44.3405 141.288 38.6019 134.642 38.2771L134.641 38.277L56.9771 34.5017C56.9718 34.5014 56.9666 34.5011 56.9613 34.5008C50.5896 34.1638 44.9166 38.9614 44.1198 45.2665L43.0073 54.0701C42.1259 60.8284 47.162 66.6188 53.933 66.7756C53.9345 66.7756 53.936 66.7757 53.9375 66.7757L87.8777 67.6151Z" fill="#DB3F4B" stroke="black" stroke-width="10"/>
</svg>
