<svg width="230" height="49" viewBox="0 0 230 49" fill="none" xmlns="http://www.w3.org/2000/svg">
<path d="M25 0C20.0555 0 15.222 1.43689 11.1108 4.12899C6.99957 6.82108 3.7952 10.6474 1.90302 15.1242C0.0108311 19.601 -0.484249 24.5271 0.480377 29.2797C1.44501 34.0323 3.82605 38.3976 7.32233 41.8238C10.8186 45.2502 15.2733 47.5837 20.1228 48.5293C24.9723 49.4745 29.9989 48.9893 34.5672 47.1353C39.1354 45.2806 43.0395 42.1404 45.7868 38.1114C48.5338 34.0824 50 29.3456 50 24.4999C50 18.0022 47.3662 11.7705 42.6777 7.17587C37.9892 2.58123 31.6305 0 25 0ZM40.357 28.0804C40.357 28.5704 38.0999 28.6404 38.0999 29.1305C38.0999 29.6204 40.3322 30.2854 40.3322 30.9611C40.3322 31.7869 35.732 31.9093 35.732 32.7355C35.732 33.6176 39.2213 33.3444 39.2213 34.3C39.2213 35.4269 30.4572 34.9019 30.4572 36.0744C30.4572 36.5223 31.5787 36.7079 32.9823 36.855C33.7536 36.9389 33.5856 37.3099 33.1466 37.5551C30.6929 39.022 27.8743 39.7983 25 39.7983C22.1258 39.7983 19.3071 39.022 16.8535 37.5551C16.4178 37.2925 16.2464 36.9215 17.0178 36.855C18.4214 36.7079 19.5464 36.505 19.5464 36.0744C19.5464 34.9019 10.7786 35.4269 10.7786 34.3C10.7786 33.3444 14.2715 33.5999 14.2715 32.7355C14.2715 31.9093 9.66791 31.7869 9.66791 30.9611C9.66791 30.2854 11.9036 29.6309 11.9036 29.1305C11.9036 28.6299 9.64289 28.5739 9.64289 28.0804C9.64289 27.587 11.2929 27.2684 11.2929 26.9184C11.2929 26.2569 9.37501 27.461 9.37501 24.4999C9.37501 20.4388 11.0213 16.544 13.9515 13.6724C16.8818 10.8008 20.856 9.18747 25 9.18747C29.144 9.18747 33.1184 10.8008 36.0486 13.6724C38.9788 16.544 40.6249 20.4388 40.6249 24.4999C40.6249 27.461 38.7072 26.25 38.7072 26.9184C38.7072 27.2684 40.357 27.552 40.357 28.0804Z" fill="url(#paint0_linear_239_2489)"/>
<path d="M35.9874 20.2798L36.341 20.6333L36.6946 20.2798L37.1854 19.7889C37.2614 19.7129 37.3845 19.7129 37.4605 19.7889L38.4427 20.7711C38.519 20.8473 38.5186 20.9707 38.4433 21.046L34.5152 24.9741C34.4392 25.0501 34.3161 25.0501 34.2401 24.9741L33.2579 23.9919C33.1819 23.9159 33.1819 23.7928 33.2579 23.7168L33.7488 23.2259L34.1024 22.8724L33.7488 22.5188L32.4945 21.2645L32.2912 21.0612L32.0132 21.1346C31.2491 21.3365 30.4117 21.1462 29.8204 20.5549L27.6876 18.4221L27.6875 18.4219C27.2601 17.9949 27.0203 17.4156 27.0203 16.8116V15.9978V15.6888L26.7438 15.5506L23.4721 13.9149C26.0029 11.8822 29.7118 12.0397 32.0595 14.3874L34.0235 16.3514C34.6148 16.9427 34.8051 17.78 34.6032 18.5442L34.5298 18.8221L34.7331 19.0254L35.9874 20.2798ZM28.2464 22.3534L18.2802 33.0286L18.641 33.3654L18.2802 33.0286C17.4367 33.9321 16.0128 33.9563 15.1395 33.0827C14.2661 32.2089 14.2904 30.7852 15.1936 29.9418L25.8692 19.9747C25.9104 20.0208 25.9534 20.0665 25.9983 20.1114L28.1311 22.2442C28.169 22.2821 28.2075 22.3184 28.2464 22.3534Z" fill="#A53C3C" stroke="#3F0071"/>
<path d="M70.2848 18.2661L65.4508 33H61.5567L68.1607 15.2266H70.6388L70.2848 18.2661ZM74.3009 33L69.4547 18.2661L69.0641 15.2266H71.5665L78.2071 33H74.3009ZM74.0812 26.3838V29.2524H64.6939V26.3838H74.0812ZM89.158 28.3491C89.158 28.0317 89.1092 27.7469 89.0115 27.4946C88.922 27.2342 88.7511 26.9982 88.4988 26.7866C88.2466 26.5669 87.8925 26.3512 87.4368 26.1396C86.9811 25.9281 86.3911 25.7083 85.6668 25.4805C84.8611 25.2201 84.0962 24.9271 83.3719 24.6016C82.6557 24.276 82.021 23.8976 81.4676 23.4663C80.9223 23.0269 80.491 22.5182 80.1736 21.9404C79.8644 21.3626 79.7098 20.6912 79.7098 19.9263C79.7098 19.1857 79.8725 18.5143 80.198 17.9121C80.5236 17.3018 80.9793 16.7809 81.5652 16.3496C82.1512 15.9102 82.8429 15.5724 83.6404 15.3364C84.4461 15.1004 85.3291 14.9824 86.2894 14.9824C87.5996 14.9824 88.743 15.2184 89.7195 15.6904C90.6961 16.1624 91.4529 16.8094 91.99 17.6313C92.5353 18.4533 92.8079 19.3932 92.8079 20.4512H89.1702C89.1702 19.9303 89.0604 19.4746 88.8406 19.084C88.629 18.6852 88.3035 18.3719 87.8641 18.144C87.4327 17.9162 86.8875 17.8022 86.2283 17.8022C85.5936 17.8022 85.0646 17.8999 84.6414 18.0952C84.2182 18.2824 83.9008 18.5387 83.6893 18.8643C83.4777 19.1816 83.3719 19.5397 83.3719 19.9385C83.3719 20.2396 83.4451 20.5122 83.5916 20.7563C83.7462 21.0005 83.9741 21.2284 84.2752 21.4399C84.5763 21.6515 84.9466 21.8509 85.386 22.0381C85.8255 22.2253 86.3341 22.4084 86.9119 22.5874C87.8803 22.8804 88.7308 23.21 89.4632 23.5762C90.2037 23.9424 90.8222 24.3534 91.3187 24.8091C91.8151 25.2648 92.1894 25.7816 92.4417 26.3594C92.694 26.9372 92.8201 27.5923 92.8201 28.3247C92.8201 29.0978 92.6696 29.7896 92.3685 30.3999C92.0674 31.0103 91.632 31.527 91.0623 31.9502C90.4926 32.3734 89.8131 32.6948 89.0237 32.9146C88.2343 33.1343 87.3514 33.2441 86.3748 33.2441C85.4959 33.2441 84.6292 33.1302 83.7747 32.9023C82.9202 32.6663 82.143 32.3123 81.4432 31.8403C80.7514 31.3683 80.198 30.7661 79.783 30.0337C79.368 29.3013 79.1604 28.4346 79.1604 27.4336H82.8348C82.8348 27.987 82.9202 28.4549 83.0911 28.8374C83.262 29.2199 83.5021 29.5291 83.8113 29.7651C84.1287 30.0011 84.5031 30.172 84.9344 30.2778C85.3738 30.3836 85.854 30.4365 86.3748 30.4365C87.0096 30.4365 87.5304 30.347 87.9373 30.168C88.3523 29.9889 88.6575 29.7407 88.8528 29.4233C89.0563 29.106 89.158 28.7479 89.158 28.3491ZM99.0225 15.2266V33H95.3604V15.2266H99.0225ZM109.667 15.2266L102.624 24.0034L98.5586 28.3735L97.8994 24.9067L100.646 21.147L105.175 15.2266H109.667ZM105.504 33L100.268 24.7847L102.978 22.5142L109.838 33H105.504ZM118.262 25.1997H113.696L113.672 22.6851H117.505C118.181 22.6851 118.734 22.5996 119.165 22.4287C119.597 22.2497 119.918 21.9933 120.13 21.6597C120.349 21.3179 120.459 20.9028 120.459 20.4146C120.459 19.8612 120.353 19.4136 120.142 19.0718C119.938 18.73 119.617 18.4818 119.177 18.3271C118.746 18.1725 118.189 18.0952 117.505 18.0952H114.966V33H111.304V15.2266H117.505C118.539 15.2266 119.462 15.3242 120.276 15.5195C121.098 15.7148 121.794 16.0119 122.363 16.4106C122.933 16.8094 123.369 17.314 123.67 17.9243C123.971 18.5265 124.121 19.2427 124.121 20.0728C124.121 20.8052 123.954 21.4806 123.621 22.0991C123.295 22.7176 122.779 23.2222 122.071 23.6128C121.371 24.0034 120.455 24.2191 119.324 24.2598L118.262 25.1997ZM118.103 33H112.696L114.124 30.1436H118.103C118.746 30.1436 119.271 30.0418 119.678 29.8384C120.085 29.6268 120.386 29.342 120.581 28.9839C120.777 28.6258 120.874 28.2148 120.874 27.751C120.874 27.2301 120.785 26.7785 120.606 26.396C120.435 26.0135 120.158 25.7205 119.776 25.5171C119.393 25.3055 118.889 25.1997 118.262 25.1997H114.734L114.758 22.6851H119.153L119.995 23.6738C121.078 23.6576 121.948 23.8488 122.608 24.2476C123.275 24.6382 123.759 25.1468 124.06 25.7734C124.37 26.4001 124.524 27.0715 124.524 27.7876C124.524 28.9269 124.276 29.8872 123.779 30.6685C123.283 31.4416 122.555 32.0234 121.594 32.4141C120.642 32.8047 119.479 33 118.103 33ZM127.321 15.2266H133.949C135.308 15.2266 136.476 15.43 137.453 15.8369C138.437 16.2438 139.194 16.846 139.723 17.6436C140.252 18.4411 140.517 19.4217 140.517 20.5854C140.517 21.5376 140.354 22.3555 140.028 23.0391C139.711 23.7145 139.259 24.2801 138.673 24.7358C138.095 25.1834 137.416 25.5415 136.635 25.8101L135.475 26.4204H129.713L129.689 23.564H133.974C134.616 23.564 135.149 23.45 135.573 23.2222C135.996 22.9943 136.313 22.6769 136.525 22.27C136.745 21.8631 136.854 21.3911 136.854 20.854C136.854 20.2843 136.749 19.792 136.537 19.377C136.325 18.9619 136.004 18.6445 135.573 18.4248C135.141 18.2051 134.6 18.0952 133.949 18.0952H130.983V33H127.321V15.2266ZM137.257 33L133.204 25.0776L137.074 25.0532L141.176 32.8291V33H137.257ZM147.28 15.2266V33H143.63V15.2266H147.28ZM161.063 27.104H164.713C164.64 28.3003 164.31 29.3623 163.724 30.29C163.147 31.2178 162.337 31.9421 161.295 32.4629C160.262 32.9837 159.017 33.2441 157.56 33.2441C156.421 33.2441 155.399 33.0488 154.496 32.6582C153.593 32.2594 152.819 31.6898 152.177 30.9492C151.542 30.2087 151.058 29.3135 150.724 28.2637C150.39 27.2139 150.223 26.0379 150.223 24.7358V23.5029C150.223 22.2008 150.394 21.0249 150.736 19.9751C151.086 18.9172 151.582 18.0179 152.225 17.2773C152.876 16.5368 153.654 15.9671 154.557 15.5684C155.46 15.1696 156.469 14.9702 157.584 14.9702C159.065 14.9702 160.315 15.2388 161.332 15.7759C162.357 16.313 163.151 17.0535 163.712 17.9976C164.282 18.9416 164.624 20.0158 164.738 21.2202H161.075C161.035 20.5041 160.892 19.8978 160.648 19.4014C160.404 18.8968 160.034 18.5184 159.537 18.2661C159.049 18.0057 158.398 17.8755 157.584 17.8755C156.974 17.8755 156.441 17.9894 155.985 18.2173C155.529 18.4451 155.147 18.791 154.838 19.2549C154.528 19.7188 154.297 20.3047 154.142 21.0127C153.995 21.7126 153.922 22.5345 153.922 23.4785V24.7358C153.922 25.6554 153.991 26.4652 154.13 27.165C154.268 27.8568 154.48 28.4427 154.764 28.9229C155.057 29.3949 155.432 29.7529 155.888 29.9971C156.351 30.2331 156.909 30.3511 157.56 30.3511C158.325 30.3511 158.956 30.229 159.452 29.9849C159.948 29.7407 160.327 29.3786 160.587 28.8984C160.856 28.4183 161.014 27.8201 161.063 27.104ZM174.395 18.2661L169.561 33H165.667L172.271 15.2266H174.749L174.395 18.2661ZM178.411 33L173.564 18.2661L173.174 15.2266H175.676L182.317 33H178.411ZM178.191 26.3838V29.2524H168.804V26.3838H178.191ZM195.441 30.1436V33H186.493V30.1436H195.441ZM187.677 15.2266V33H184.015V15.2266H187.677ZM209.016 30.1436V33H200.068V30.1436H209.016ZM201.252 15.2266V33H197.59V15.2266H201.252Z" fill="url(#paint1_linear_239_2489)"/>
<defs>
<linearGradient id="paint0_linear_239_2489" x1="25" y1="0" x2="25" y2="49" gradientUnits="userSpaceOnUse">
<stop stop-color="#887878"/>
<stop offset="1" stop-color="#1B2430"/>
</linearGradient>
<linearGradient id="paint1_linear_239_2489" x1="65.5" y1="23" x2="147" y2="23" gradientUnits="userSpaceOnUse">
<stop stop-color="#6A5BCD"/>
<stop offset="1" stop-color="#FF7F50"/>
</linearGradient>
</defs>
</svg>
