<svg width="50" height="49" viewBox="0 0 50 49" fill="none" xmlns="http://www.w3.org/2000/svg">
<path d="M25 0C20.0555 0 15.222 1.43689 11.1108 4.12899C6.99957 6.82108 3.7952 10.6474 1.90302 15.1242C0.0108311 19.601 -0.484249 24.5271 0.480377 29.2797C1.44501 34.0323 3.82605 38.3976 7.32233 41.8238C10.8186 45.2502 15.2733 47.5837 20.1228 48.5293C24.9723 49.4745 29.9989 48.9893 34.5672 47.1353C39.1354 45.2806 43.0395 42.1404 45.7868 38.1114C48.5338 34.0824 50 29.3456 50 24.4999C50 18.0022 47.3662 11.7705 42.6777 7.17587C37.9892 2.58123 31.6305 0 25 0ZM40.357 28.0804C40.357 28.5704 38.0999 28.6404 38.0999 29.1305C38.0999 29.6204 40.3322 30.2854 40.3322 30.9611C40.3322 31.7869 35.732 31.9093 35.732 32.7355C35.732 33.6176 39.2213 33.3444 39.2213 34.3C39.2213 35.4269 30.4572 34.9019 30.4572 36.0744C30.4572 36.5223 31.5787 36.7079 32.9823 36.855C33.7536 36.9389 33.5856 37.3099 33.1466 37.5551C30.6929 39.022 27.8743 39.7983 25 39.7983C22.1258 39.7983 19.3071 39.022 16.8535 37.5551C16.4178 37.2925 16.2464 36.9215 17.0178 36.855C18.4214 36.7079 19.5464 36.505 19.5464 36.0744C19.5464 34.9019 10.7786 35.4269 10.7786 34.3C10.7786 33.3444 14.2715 33.5999 14.2715 32.7355C14.2715 31.9093 9.66791 31.7869 9.66791 30.9611C9.66791 30.2854 11.9036 29.6309 11.9036 29.1305C11.9036 28.6299 9.64289 28.5739 9.64289 28.0804C9.64289 27.587 11.2929 27.2684 11.2929 26.9184C11.2929 26.2569 9.37501 27.461 9.37501 24.4999C9.37501 20.4388 11.0213 16.544 13.9515 13.6724C16.8818 10.8008 20.856 9.18747 25 9.18747C29.144 9.18747 33.1184 10.8008 36.0486 13.6724C38.9788 16.544 40.6249 20.4388 40.6249 24.4999C40.6249 27.461 38.7072 26.25 38.7072 26.9184C38.7072 27.2684 40.357 27.552 40.357 28.0804Z" fill="url(#paint0_linear_237_2278)"/>
<path d="M35.9874 20.2798L36.341 20.6333L36.6946 20.2798L37.1854 19.7889C37.2614 19.7129 37.3845 19.7129 37.4605 19.7889L38.4427 20.7711C38.519 20.8473 38.5186 20.9707 38.4433 21.046L34.5152 24.9741C34.4392 25.0501 34.3161 25.0501 34.2401 24.9741L33.2579 23.9919C33.1819 23.9159 33.1819 23.7928 33.2579 23.7168L33.7488 23.2259L34.1024 22.8724L33.7488 22.5188L32.4945 21.2645L32.2912 21.0612L32.0132 21.1346C31.2491 21.3365 30.4117 21.1462 29.8204 20.5549L27.6876 18.4221L27.6875 18.4219C27.2601 17.9949 27.0203 17.4156 27.0203 16.8116V15.9978V15.6888L26.7438 15.5506L23.4721 13.9149C26.0029 11.8822 29.7118 12.0397 32.0595 14.3874L34.0235 16.3514C34.6148 16.9427 34.8051 17.78 34.6032 18.5442L34.5298 18.8221L34.7331 19.0254L35.9874 20.2798ZM28.2464 22.3534L18.2802 33.0286L18.641 33.3654L18.2802 33.0286C17.4367 33.9321 16.0128 33.9563 15.1395 33.0827C14.2661 32.2089 14.2904 30.7852 15.1936 29.9418L25.8692 19.9747C25.9104 20.0208 25.9534 20.0665 25.9983 20.1114L28.1311 22.2442C28.169 22.2821 28.2075 22.3184 28.2464 22.3534Z" fill="#A53C3C" stroke="#3F0071"/>
<defs>
<linearGradient id="paint0_linear_237_2278" x1="25" y1="0" x2="25" y2="49" gradientUnits="userSpaceOnUse">
<stop stop-color="#431D5B"/>
<stop offset="1" stop-color="#1B2430"/>
</linearGradient>
</defs>
</svg>
